<?xml version="1.0" encoding="utf-8" standalone="no"?>
<!DOCTYPE svg PUBLIC "-//W3C//DTD SVG 1.1//EN"
  "http://www.w3.org/Graphics/SVG/1.1/DTD/svg11.dtd">
<svg xmlns:xlink="http://www.w3.org/1999/xlink" width="288pt" height="216pt" viewBox="0 0 288 216" xmlns="http://www.w3.org/2000/svg" version="1.1">
 <metadata>
  <rdf:RDF xmlns:dc="http://purl.org/dc/elements/1.1/" xmlns:cc="http://creativecommons.org/ns#" xmlns:rdf="http://www.w3.org/1999/02/22-rdf-syntax-ns#">
   <cc:Work>
    <dc:type rdf:resource="http://purl.org/dc/dcmitype/StillImage"/>
    <dc:date>2023-05-26T17:24:26.588248</dc:date>
    <dc:format>image/svg+xml</dc:format>
    <dc:creator>
     <cc:Agent>
      <dc:title>Matplotlib v3.7.1, https://matplotlib.org/</dc:title>
     </cc:Agent>
    </dc:creator>
   </cc:Work>
  </rdf:RDF>
 </metadata>
 <defs>
  <style type="text/css">*{stroke-linejoin: round; stroke-linecap: butt}</style>
 </defs>
 <g id="figure_1">
  <g id="patch_1">
   <path d="M 0 216 
L 288 216 
L 288 0 
L 0 0 
L 0 216 
z
" style="fill: none"/>
  </g>
  <g id="axes_1">
   <g id="patch_2">
    <path d="M 36 192.24 
L 259.2 192.24 
L 259.2 25.92 
L 36 25.92 
L 36 192.24 
z
" style="fill: none"/>
   </g>
   <g id="matplotlib.axis_1"/>
   <g id="matplotlib.axis_2"/>
   <g id="line2d_1">
    <path d="M 40.262806 56.557604 
L 41.362993 46.070682 
L 42.46318 42.735034 
L 43.563367 31.683872 
L 44.663554 42.346298 
L 45.763741 35.838507 
L 46.863927 30.117735 
L 49.064301 56.443103 
L 50.164488 63.231257 
L 51.264675 63.552699 
L 52.364862 91.146474 
L 53.465049 105.541559 
L 54.565236 117.046936 
L 55.665423 118.792937 
L 57.865796 157.185697 
L 58.965983 179.31393 
L 61.166357 168.557496 
L 62.266544 171.826056 
L 63.366731 192.552257 
L 65.567105 173.224172 
L 66.667292 149.034739 
L 67.767479 147.691243 
L 68.867666 123.036036 
L 69.967852 124.273684 
L 71.068039 109.77685 
L 72.168226 104.866177 
L 73.268413 95.789038 
L 74.3686 79.951434 
L 75.468787 70.091819 
L 76.568974 67.090027 
L 77.669161 35.892964 
L 78.769348 41.642991 
L 79.869535 44.873863 
L 80.969721 27.882586 
L 82.069908 46.967536 
L 83.170095 45.301353 
L 84.270282 55.828167 
L 85.370469 69.307939 
L 86.470656 74.176803 
L 87.570843 88.662614 
L 88.67103 94.757796 
L 89.771217 123.967599 
L 90.871404 132.106454 
L 91.971591 148.70315 
L 93.071777 175.529641 
L 94.171964 164.870194 
L 95.272151 183.521729 
L 96.372338 179.592084 
L 97.472525 184.451451 
L 98.572712 180.771199 
L 99.672899 173.032847 
L 100.773086 155.694781 
L 101.873273 165.260481 
L 102.97346 165.211228 
L 104.073646 137.756802 
L 105.173833 122.116196 
L 106.27402 128.155903 
L 107.374207 101.791304 
L 108.474394 71.582056 
L 109.574581 79.953206 
L 110.674768 63.251582 
L 111.774955 52.589858 
L 112.875142 44.669528 
L 113.975329 29.755479 
L 115.075516 47.786595 
L 116.175702 12.438271 
L 117.275889 35.410895 
L 118.376076 46.45772 
L 119.476263 69.678215 
L 120.57645 69.01818 
L 121.676637 76.463553 
L 122.776824 85.736031 
L 123.877011 113.725791 
L 124.977198 108.979205 
L 126.077385 127.289694 
L 127.177571 123.46229 
L 128.277758 148.661589 
L 129.377945 156.560152 
L 130.478132 170.564274 
L 131.578319 175.879299 
L 132.678506 189.011342 
L 133.778693 192.650083 
L 134.87888 174.660115 
L 135.979067 165.630129 
L 137.079254 170.218744 
L 138.179441 172.641864 
L 139.279627 153.425018 
L 140.379814 126.784389 
L 141.480001 124.762501 
L 142.580188 85.078247 
L 143.680375 82.028676 
L 144.780562 83.269657 
L 145.880749 79.902793 
L 146.980936 44.382105 
L 148.081123 45.045167 
L 149.18131 45.926467 
L 150.281496 35.915172 
L 151.381683 39.741748 
L 152.48187 38.122464 
L 153.582057 41.218581 
L 154.682244 47.486902 
L 155.782431 47.191042 
L 156.882618 65.330532 
L 157.982805 85.613318 
L 159.082992 78.598204 
L 160.183179 113.71112 
L 161.283365 126.379404 
L 162.383552 150.311147 
L 163.483739 144.049247 
L 164.583926 152.930703 
L 165.684113 177.004577 
L 166.7843 180.592765 
L 167.884487 192.448024 
L 168.984674 193.909627 
L 170.084861 180.150529 
L 171.185048 184.4629 
L 172.285235 168.398922 
L 173.385421 169.873814 
L 175.585795 149.628338 
L 176.685982 135.94902 
L 177.786169 116.001112 
L 178.886356 104.203221 
L 179.986543 75.206062 
L 181.08673 63.552243 
L 182.186917 64.770065 
L 183.287104 39.665874 
L 184.38729 51.302508 
L 186.587664 27.537872 
L 187.687851 42.049561 
L 188.788038 53.706024 
L 189.888225 39.892943 
L 190.988412 56.690167 
L 192.088599 65.381263 
L 193.188786 73.17463 
L 194.288973 92.659588 
L 195.38916 102.794343 
L 196.489346 109.365163 
L 197.589533 145.164174 
L 199.789907 153.287013 
L 200.890094 166.904516 
L 201.990281 171.296923 
L 203.090468 184.402635 
L 204.190655 187.875194 
L 205.290842 174.753309 
L 206.391029 177.462898 
L 207.491215 187.599567 
L 209.691589 144.504677 
L 210.791776 156.437361 
L 211.891963 139.750231 
L 212.99215 112.327933 
L 214.092337 113.275444 
L 215.192524 91.11663 
L 216.292711 82.378575 
L 217.392898 84.15105 
L 218.493085 54.807598 
L 219.593271 51.688621 
L 220.693458 40.509869 
L 221.793645 30.995294 
L 222.893832 39.661665 
L 223.994019 32.550686 
L 225.094206 23.969151 
L 226.194393 49.397201 
L 227.29458 63.235357 
L 228.394767 71.404899 
L 229.494954 77.197797 
L 230.59514 106.160529 
L 231.695327 112.397181 
L 232.795514 122.762816 
L 234.995888 163.607 
L 236.096075 158.076107 
L 237.196262 174.685984 
L 238.296449 187.85253 
L 239.396636 180.658058 
L 240.496823 187.994676 
L 241.59701 183.025619 
L 242.697196 178.694359 
L 243.797383 151.69912 
L 244.89757 154.978023 
L 245.997757 165.419022 
L 247.097944 147.834109 
L 249.298318 106.226609 
L 250.398505 91.72342 
L 251.498692 63.627001 
L 252.598879 70.654416 
L 253.699065 53.914891 
L 254.799252 34.069312 
L 255.899439 33.622161 
L 256.999626 27.289225 
L 258.099813 39.643735 
L 259.2 26.869413 
L 259.2 26.869413 
" style="fill: none; stroke: #000000; stroke-width: 0.7; stroke-linecap: square"/>
   </g>
   <g id="line2d_2">
    <defs>
     <path id="m83e0e6a65f" d="M 0 1.5 
C 0.397805 1.5 0.77937 1.341951 1.06066 1.06066 
C 1.341951 0.77937 1.5 0.397805 1.5 0 
C 1.5 -0.397805 1.341951 -0.77937 1.06066 -1.06066 
C 0.77937 -1.341951 0.397805 -1.5 0 -1.5 
C -0.397805 -1.5 -0.77937 -1.341951 -1.06066 -1.06066 
C -1.341951 -0.77937 -1.5 -0.397805 -1.5 0 
C -1.5 0.397805 -1.341951 0.77937 -1.06066 1.06066 
C -0.77937 1.341951 -0.397805 1.5 0 1.5 
z
" style="stroke: #0567b1"/>
    </defs>
    <g>
     <use xlink:href="#m83e0e6a65f" x="40.262806" y="59.184" style="fill: #0567b1; stroke: #0567b1"/>
    </g>
   </g>
   <g id="line2d_3">
    <path d="M 40.262806 109.08 
L 40.262806 59.184 
" clip-path="url(#pe51378806d)" style="fill: none; stroke: #0567b1; stroke-width: 0.7; stroke-linecap: square"/>
   </g>
   <g id="line2d_4">
    <g>
     <use xlink:href="#m83e0e6a65f" x="62.266544" y="175.608" style="fill: #0567b1; stroke: #0567b1"/>
    </g>
   </g>
   <g id="line2d_5">
    <path d="M 62.266544 109.08 
L 62.266544 175.608 
" clip-path="url(#pe51378806d)" style="fill: none; stroke: #0567b1; stroke-width: 0.7; stroke-linecap: square"/>
   </g>
   <g id="line2d_6">
    <g>
     <use xlink:href="#m83e0e6a65f" x="84.270282" y="59.184" style="fill: #0567b1; stroke: #0567b1"/>
    </g>
   </g>
   <g id="line2d_7">
    <path d="M 84.270282 109.08 
L 84.270282 59.184 
" clip-path="url(#pe51378806d)" style="fill: none; stroke: #0567b1; stroke-width: 0.7; stroke-linecap: square"/>
   </g>
   <g id="line2d_8">
    <g>
     <use xlink:href="#m83e0e6a65f" x="106.27402" y="125.712" style="fill: #0567b1; stroke: #0567b1"/>
    </g>
   </g>
   <g id="line2d_9">
    <path d="M 106.27402 109.08 
L 106.27402 125.712 
" clip-path="url(#pe51378806d)" style="fill: none; stroke: #0567b1; stroke-width: 0.7; stroke-linecap: square"/>
   </g>
   <g id="line2d_10">
    <g>
     <use xlink:href="#m83e0e6a65f" x="128.277758" y="150.66" style="fill: #0567b1; stroke: #0567b1"/>
    </g>
   </g>
   <g id="line2d_11">
    <path d="M 128.277758 109.08 
L 128.277758 150.66 
" clip-path="url(#pe51378806d)" style="fill: none; stroke: #0567b1; stroke-width: 0.7; stroke-linecap: square"/>
   </g>
   <g id="line2d_12">
    <g>
     <use xlink:href="#m83e0e6a65f" x="150.281496" y="34.236" style="fill: #0567b1; stroke: #0567b1"/>
    </g>
   </g>
   <g id="line2d_13">
    <path d="M 150.281496 109.08 
L 150.281496 34.236 
" clip-path="url(#pe51378806d)" style="fill: none; stroke: #0567b1; stroke-width: 0.7; stroke-linecap: square"/>
   </g>
   <g id="line2d_14">
    <g>
     <use xlink:href="#m83e0e6a65f" x="172.285235" y="167.292" style="fill: #0567b1; stroke: #0567b1"/>
    </g>
   </g>
   <g id="line2d_15">
    <path d="M 172.285235 109.08 
L 172.285235 167.292 
" clip-path="url(#pe51378806d)" style="fill: none; stroke: #0567b1; stroke-width: 0.7; stroke-linecap: square"/>
   </g>
   <g id="line2d_16">
    <g>
     <use xlink:href="#m83e0e6a65f" x="194.288973" y="92.448" style="fill: #0567b1; stroke: #0567b1"/>
    </g>
   </g>
   <g id="line2d_17">
    <path d="M 194.288973 109.08 
L 194.288973 92.448 
" clip-path="url(#pe51378806d)" style="fill: none; stroke: #0567b1; stroke-width: 0.7; stroke-linecap: square"/>
   </g>
   <g id="line2d_18">
    <g>
     <use xlink:href="#m83e0e6a65f" x="216.292711" y="84.132" style="fill: #0567b1; stroke: #0567b1"/>
    </g>
   </g>
   <g id="line2d_19">
    <path d="M 216.292711 109.08 
L 216.292711 84.132 
" clip-path="url(#pe51378806d)" style="fill: none; stroke: #0567b1; stroke-width: 0.7; stroke-linecap: square"/>
   </g>
   <g id="line2d_20">
    <g>
     <use xlink:href="#m83e0e6a65f" x="238.296449" y="183.924" style="fill: #0567b1; stroke: #0567b1"/>
    </g>
   </g>
   <g id="line2d_21">
    <path d="M 238.296449 109.08 
L 238.296449 183.924 
" clip-path="url(#pe51378806d)" style="fill: none; stroke: #0567b1; stroke-width: 0.7; stroke-linecap: square"/>
   </g>
   <g id="line2d_22">
    <path d="M 84.270282 192.24 
L 84.270282 25.92 
" clip-path="url(#pe51378806d)" style="fill: none; stroke-dasharray: 2.22,0.96; stroke-dashoffset: 0; stroke: #0567b1; stroke-width: 0.6"/>
   </g>
   <g id="line2d_23">
    <path d="M 106.27402 192.24 
L 106.27402 25.92 
" clip-path="url(#pe51378806d)" style="fill: none; stroke-dasharray: 2.22,0.96; stroke-dashoffset: 0; stroke: #0567b1; stroke-width: 0.6"/>
   </g>
   <g id="patch_3">
    <path d="M 103.154914 67.5 
Q 95.270283 67.5 87.385653 67.5 
" style="fill: none; stroke: #0567b1; stroke-linecap: round"/>
    <path d="M 99.154914 65.5 
L 103.154914 67.5 
L 99.154914 69.5 
" style="fill: none; stroke: #0567b1; stroke-linecap: round"/>
    <path d="M 91.385653 69.5 
L 87.385653 67.5 
L 91.385653 65.5 
" style="fill: none; stroke: #0567b1; stroke-linecap: round"/>
   </g>
   <g id="text_1">
    <!-- $\Delta t$ -->
    <g style="fill: #0567b1" transform="translate(87.115901 63.342) scale(0.14 -0.14)">
     <defs>
      <path id="CMR17-1" d="M 2598 4435 
C 2547 4544 2522 4544 2470 4544 
C 2394 4544 2387 4531 2342 4441 
L 269 108 
C 262 96 237 38 237 32 
C 237 6 243 0 358 0 
L 4576 0 
C 4691 0 4698 6 4698 32 
C 4698 38 4672 96 4666 108 
L 2598 4435 
z
M 2310 4056 
L 4083 358 
L 531 358 
L 2310 4056 
z
" transform="scale(0.015625)"/>
      <path id="CMMI12-74" d="M 1286 2566 
L 1875 2566 
C 1997 2566 2061 2566 2061 2681 
C 2061 2752 2022 2752 1894 2752 
L 1331 2752 
L 1568 3664 
C 1594 3752 1594 3764 1594 3808 
C 1594 3910 1510 3968 1427 3968 
C 1376 3968 1229 3948 1178 3746 
L 928 2752 
L 326 2752 
C 198 2752 141 2752 141 2630 
C 141 2566 186 2566 307 2566 
L 877 2566 
L 454 881 
C 403 657 384 593 384 510 
C 384 210 595 -64 954 -64 
C 1600 -64 1946 868 1946 913 
C 1946 951 1920 970 1882 970 
C 1869 970 1843 970 1830 944 
C 1824 938 1818 932 1773 830 
C 1638 510 1344 64 973 64 
C 781 64 768 223 768 364 
C 768 370 768 491 787 568 
L 1286 2566 
z
" transform="scale(0.015625)"/>
     </defs>
     <use xlink:href="#CMR17-1" transform="scale(0.996264)"/>
     <use xlink:href="#CMMI12-74" transform="translate(76.91959 0) scale(0.996264)"/>
    </g>
   </g>
   <g id="patch_4">
    <path d="M 37.999182 109.08 
Q 147.598827 109.08 256.080439 109.08 
" style="fill: none; stroke: #000000; stroke-linecap: round"/>
    <path d="M 252.080439 107.08 
L 256.080439 109.08 
L 252.080439 111.08 
" style="fill: none; stroke: #000000; stroke-linecap: round"/>
   </g>
   <g id="patch_5">
    <path d="M 38.131403 190.237643 
Q 38.131403 109.077976 38.131403 29.036343 
" style="fill: none; stroke: #000000; stroke-linecap: round"/>
    <path d="M 36.131403 33.036343 
L 38.131403 29.036343 
L 40.131403 33.036343 
" style="fill: none; stroke: #000000; stroke-linecap: round"/>
   </g>
   <g id="text_2">
    <!-- $0$ -->
    <g style="fill: #0567b1" transform="translate(35.289532 119.8908) scale(0.14 -0.14)">
     <defs>
      <path id="CMR17-30" d="M 2688 2038 
C 2688 2430 2682 3099 2413 3613 
C 2176 4063 1798 4224 1466 4224 
C 1158 4224 768 4082 525 3620 
C 269 3137 243 2539 243 2038 
C 243 1671 250 1112 448 623 
C 723 -39 1216 -128 1466 -128 
C 1760 -128 2208 -7 2470 604 
C 2662 1048 2688 1568 2688 2038 
z
M 1466 -26 
C 1056 -26 813 328 723 816 
C 653 1196 653 1749 653 2109 
C 653 2604 653 3015 736 3407 
C 858 3954 1216 4121 1466 4121 
C 1728 4121 2067 3947 2189 3420 
C 2272 3054 2278 2623 2278 2109 
C 2278 1691 2278 1176 2202 797 
C 2067 96 1690 -26 1466 -26 
z
" transform="scale(0.015625)"/>
     </defs>
     <use xlink:href="#CMR17-30" transform="scale(0.996264)"/>
    </g>
   </g>
   <g id="text_3">
    <!-- $t$ -->
    <g style="fill: #0567b1" transform="translate(259.2 119.8908) scale(0.14 -0.14)">
     <use xlink:href="#CMMI12-74" transform="scale(0.996264)"/>
    </g>
   </g>
   <g id="text_4">
    <!-- $u$ -->
    <g style="fill: #0567b1" transform="translate(36 21.762) scale(0.14 -0.14)">
     <defs>
      <path id="CMMI12-75" d="M 2182 370 
C 2266 12 2573 -64 2726 -64 
C 2931 -64 3085 70 3187 287 
C 3296 517 3379 893 3379 913 
C 3379 944 3354 970 3315 970 
C 3258 970 3251 938 3226 842 
C 3110 402 2995 64 2739 64 
C 2547 64 2547 274 2547 357 
C 2547 504 2566 568 2630 836 
C 2675 1008 2720 1181 2758 1359 
L 3021 2400 
C 3066 2560 3066 2572 3066 2591 
C 3066 2687 2989 2752 2893 2752 
C 2707 2752 2662 2591 2624 2432 
C 2560 2183 2214 810 2170 587 
C 2163 587 1914 64 1446 64 
C 1114 64 1050 351 1050 587 
C 1050 951 1229 1462 1395 1890 
C 1472 2094 1504 2177 1504 2305 
C 1504 2579 1306 2816 998 2816 
C 410 2816 173 1890 173 1838 
C 173 1813 198 1781 243 1781 
C 301 1781 307 1807 333 1896 
C 486 2445 736 2687 979 2687 
C 1043 2687 1146 2681 1146 2477 
C 1146 2311 1075 2126 979 1883 
C 698 1123 666 881 666 689 
C 666 38 1158 -64 1421 -64 
C 1830 -64 2054 217 2182 370 
z
" transform="scale(0.015625)"/>
     </defs>
     <use xlink:href="#CMMI12-75" transform="scale(0.996264)"/>
    </g>
   </g>
  </g>
 </g>
 <defs>
  <clipPath id="pe51378806d">
   <rect x="36" y="25.92" width="223.2" height="166.32"/>
  </clipPath>
 </defs>
</svg>
